<svg xmlns="http://www.w3.org/2000/svg" viewBox="0 0 264.9 46.8">
  <defs>
    <linearGradient id="a">
      <stop offset=".5" stop-color="#fff"/>
      <stop offset=".5" stop-color="red"/>
    </linearGradient>
    <linearGradient id="b" x1="30" x2="90" y1="89.5" y2="89.5" gradientTransform="translate(45.753628,-68.850029)" gradientUnits="userSpaceOnUse" href="#a"/>
  </defs>
  <g stroke-width=".3" aria-label="TotalFreedom" font-family="Myriad Pro" font-size="35.3" font-weight="600" letter-spacing="-.9" style="line-height:.65;-inkscape-font-specification:&quot;Myriad Pro Semi-Bold&quot;">
    <path fill="#fe0000" d="M62.8 15.1v21.3h-4.5V15h-8v-4h20.9v4z"/>
    <path fill="#fe0000" d="M67.2 27.1q0-4.2 2.4-6.9 2.5-2.6 6.5-2.6 4.2 0 6.5 2.5 2.3 2.6 2.3 7t-2.3 7-6.5 2.6-6.6-2.6-2.3-7m4.5 0q0 6.1 4.4 6.1 2 0 3.2-1.6t1.2-4.5q0-6-4.4-6-2 0-3.2 1.6T71.7 27m16.4-5.6H86v-3.5h2v-3.7l4.3-1.6v5.3h5.1v3.5h-5v8q0 2 .6 2.9t2.1.8 3-.8v4q-1.6.4-4.4.4-2.7 0-4.2-1.5-1.5-1.6-1.5-4.5zm22.7 13.1q-.6 1-2 1.6-1.5.6-3 .6-3 0-4.7-1.5T99.4 31q0-3.2 2.4-5t6.8-1.8l1.8.2q0-3.2-4.1-3.2-2.5 0-4.1.8l-1-3.3q2.3-1.1 5.4-1.1 4.2 0 6.1 2 2 1.8 2 7.2v4q0 3.6 1.5 4.6-.5.9-1.2 1.1t-1.5.2q-1 0-1.7-.7t-1-1.5m-.4-6.8-1.6-.2q-5.1 0-5.1 3.3 0 2.5 2.8 2.5 4 0 4-3.9zm8.8-16.7 4.3-1v20.8q0 3.4 2 4-1 2-3.4 2-2.9 0-2.9-4.1z"/>
    <path d="M179.7 81.3v5.9h8.9V91h-8.9v11.5h-4.4V77.3h16.6v4zm25.6 6.7q-1.1-.7-2.5-.7-1.5 0-2.7 1.4Q199 90 199 92v10.5h-4.3V84.1h4.3v1.6q1.8-2 4.8-2 2.2 0 3.4.7zm20 6.6h-13.2q.2 2.2 1.6 3.4 1.4 1.3 3.7 1.3 3 0 4.5-1.6l1.7 3.3q-2.3 1.9-6.8 1.9-4.2 0-6.7-2.5t-2.5-7q0-4.3 2.7-7t6.5-2.7q4 0 6.5 2.4 2.4 2.4 2.4 6.1 0 .8-.4 2.4m-13-3.2h9q-.4-4-4.4-4-3.7 0-4.6 4m32.4 3.2h-13.2q.1 2.2 1.5 3.4 1.4 1.3 3.8 1.3 3 0 4.5-1.6l1.6 3.3q-2.2 1.9-6.8 1.9-4.2 0-6.6-2.5-2.5-2.5-2.5-7 0-4.3 2.7-7t6.5-2.7q4 0 6.4 2.4t2.5 6.1q0 .8-.4 2.4m-13-3.2h9q-.4-4-4.4-4-3.7 0-4.6 4m27.8 11.1v-1.1q-.6.6-1.8 1t-2.7.5q-3.8 0-6-2.5-2.3-2.4-2.3-6.8t2.6-7.1 6.3-2.8q2.1 0 3.9.9v-7.4l4.3-1v26.3zm0-14q-1.4-1.1-3-1.1-2.5 0-3.9 1.6-1.4 1.5-1.4 4.5 0 5.7 5.6 5.7.6 0 1.5-.3.9-.4 1.2-.8zm6.5 4.7q0-4.2 2.4-6.8 2.5-2.7 6.4-2.7 4.2 0 6.6 2.6 2.3 2.5 2.3 7t-2.4 7-6.5 2.6-6.5-2.7-2.3-7m4.5 0q0 6.1 4.3 6.1 2 0 3.2-1.5 1.2-1.6 1.2-4.6 0-6-4.4-6-2 0-3.2 1.6-1.1 1.6-1.1 4.4m37.1 9.3V91q0-3.7-3.3-3.7-1 0-1.8.6-1 .6-1.3 1.3v13.3H297V90.3q0-1.4-.8-2.2t-2.4-.8q-.8 0-1.8.6t-1.3 1.3v13.3h-4.4V84.1h3l.9 1.6q1.8-2 4.6-2 3.7 0 5.6 2 .8-.9 2.2-1.4 1.5-.6 2.9-.6 3 0 4.8 1.8 1.7 1.7 1.7 4.8v12.2z" font-family="Trebuchet MS" font-weight="700" style="-inkscape-font-specification:&quot;Trebuchet MS Bold&quot;" transform="translate(-47.032304,-66.125695)"/>
  </g>
  <g transform="translate(-47.032304,-66.125695) matrix(0.77930555,0,0,0.77930555,23.647446,19.753226)">
    <circle cx="105.8" cy="20.7" r="30" fill="url(#b)" paint-order="fill markers stroke" transform="rotate(45.110046)"/>
    <g stroke-width="1.3" aria-label="T" font-family="Myriad Pro" font-size="31.8" font-weight="600" letter-spacing="-.9" style="line-height:.65;-inkscape-font-specification:&quot;Myriad Pro Semi-Bold&quot;">
      <path stroke="#000" d="M53.7 72v19.2h-4V72.1h-7.2v-3.6h18.8V72z" font-family="Trebuchet MS" font-weight="700" style="-inkscape-font-specification:&quot;Trebuchet MS Bold&quot;"/>
    </g>
    <g fill="#fff" stroke-width="1.3" aria-label="F" font-family="Myriad Pro" font-size="31.8" font-weight="600" letter-spacing="-.9" style="line-height:.65;-inkscape-font-specification:&quot;Myriad Pro Semi-Bold&quot;">
      <path stroke="#fff" d="M70.3 91v5.4h8v3.4h-8v10.4h-4V87.5h15v3.6z" font-family="Trebuchet MS" font-weight="700" style="-inkscape-font-specification:&quot;Trebuchet MS Bold&quot;"/>
    </g>
  </g>
</svg>
